<?xml version="1.0" encoding="utf-8"?>
<!-- Generator: Adobe Illustrator 24.3.0, SVG Export Plug-In . SVG Version: 6.00 Build 0)  -->
<svg version="1.1" id="Layer_1" xmlns="http://www.w3.org/2000/svg" xmlns:xlink="http://www.w3.org/1999/xlink" x="0px" y="0px"
	 viewBox="0 0 360.2 360.8" style="enable-background:new 0 0 360.2 360.8;" xml:space="preserve">
<style type="text/css">
	.st0{fill:#FFFFFF;}
</style>
<path class="st0" d="M182,0c25.4-0.2,49.1,6.3,71.3,18c14.8,7.8,29.1,16.8,41.5,28.2c2.9,2.7,5.8,5.4,8.9,7.8
	c1.4,1.1,3.8,1.2,5.1,2.4c7.6,6.9,15.1,13.9,19.4,23.8c3.1,7,8.4,13,12.1,19.8c3.9,7.1,7.2,14.6,10.4,22.1c1.2,2.8,1.2,6,2.1,9
	c1.1,3.5,3,6.8,3.6,10.3c0.9,4.9,0.7,10,1.2,15.1c0.3,3,0.5,6,1.2,8.8c2,7.9,1.1,15.8,0.9,23.9c-0.3,15.4-4.3,30.1-7.6,44.9
	c-1.5,7-5.3,13.4-8.1,20.1c-2,4.7-3.7,9.4-6,13.9c-2.5,4.8-5.2,9.7-8.4,14c-4.2,5.6-9.3,10.5-13.4,16.1c-8,10.7-17.7,19.6-28.4,27.6
	c-8,6-16.1,12.2-25.1,16.3c-10.4,4.8-21.9,7.4-32.9,10.8c-6.2,1.9-12.3,4.3-18.7,5.2c-13.5,1.8-27,4.2-40.8,2
	c-7.5-1.2-15.3-0.3-22.9-1.4c-8.5-1.2-16.9-3.2-25.1-5.8c-7.2-2.3-14.3-5.3-21-9C85.9,335.3,70,327.2,57.8,314
	c-8.7-9.3-17.5-18.7-24.7-29.1c-7.4-10.8-14.2-22.4-19-34.6C9,237.4,5.8,223.5,3,209.7c-2.1-10.4-3.3-21.2-3-31.8
	c0.5-18.5,3.8-36.6,9.5-54.3c5-15.3,11.3-29.6,20.4-42.6c6.5-9.2,14.1-17.7,21.5-26.3c14.1-16.4,32-27.8,51.2-37.3
	c15.6-7.6,32-12.7,49.4-14.7C162,1.6,172,0.9,182,0z M78.8,63.9c2.4,2.8,4,4.9,5.8,6.7c8,7.8,16.1,15.5,24,23.4
	c8.8,8.9,17.3,18.2,26.1,27c10.7,10.7,21.6,21.2,32.6,31.5c1.2,1.2,3.7,1.5,5.5,1.4c4.5-0.2,9.2-2,13.3-1
	c18.5,4.4,25.9,18.2,21.4,36.4c-0.7,2.7-0.5,4.1,1.3,6c12.6,12.8,25.4,25.5,37.7,38.7c9.2,10,17.5,20.9,26.5,31.1
	c7.2,8.1,14.9,15.9,22.2,23.6c5-5.2,10.1-9.5,14-14.6c4.4-5.8,7.9-12.3,11.4-18.7c0.6-1-0.1-3.5-1.1-4.5c-4.2-4.5-9-8.5-12.9-13.2
	c-1.9-2.3-3.5-4.4-5.8-6.5c-7.1-6.5-13.3-13.9-20.4-20.4c-11.5-10.5-20.7-23.5-34.4-31.6c-0.8-0.5-1.4-1.4-2-2.2
	c-4-4.9-7.7-10.2-12.1-14.7c-5.5-5.6-11.8-10.5-17.6-15.9c-3.5-3.3-6.5-7.2-10-10.7c-2.5-2.5-5.4-4.5-7.8-7
	c-5.3-5.5-10.3-11.3-15.7-16.7c-5.9-5.8-12.2-11.2-18.1-17c-5.8-5.6-11.2-11.7-17.1-17.2c-5.6-5.2-12-9.5-17.5-14.8
	c-6.5-6.2-12.4-13.1-18.7-19.8C99.2,50.4,89.3,57,78.8,63.9z M64.9,79c-3.2,3.9-6.5,7.6-9.4,11.7c-3.4,4.9-6.7,10-9.5,15.3
	c-0.7,1.4,0.3,4,1.1,5.7c0.6,1.2,2.2,2,3.2,3c39.6,39.9,79.3,79.9,118.9,119.9c11.7,11.9,23.5,23.7,34.8,35.9
	c9.5,10.2,18.2,21,27.5,31.4c6.4,7.1,13,14,19.3,20.6c6.8-3.9,13.2-7.2,19.1-11.2c6.2-4.2,12-9,17.8-13.4c-1.2-1.5-2-2.7-2.9-3.6
	c-2.7-2.5-5.5-4.8-8.1-7.3c-1.6-1.5-3.2-3.2-4.6-4.9c-1-1.2-1.4-3-2.5-4c-3.6-3.2-7.7-6-11.1-9.4c-6.2-6.4-11.7-13.5-18.1-19.6
	c-8.8-8.5-18.4-16.1-27.1-24.6c-6.7-6.5-12.5-13.9-18.6-20.8c-13.6,4.8-17.2,4.5-28.8-1.9c-9.8-5.4-13.8-19.3-8.6-29
	c0.6-1.1,0.9-3.3,0.3-4c-8-8.2-16-16.5-24.3-24.3c-6.6-6.2-14.1-11.4-20.5-17.7c-10.8-10.5-21-21.7-31.6-32.4
	C75.8,89.2,70.5,84.4,64.9,79z M36.4,127.8c-0.8,1.5-2,3-2.4,4.7c-2.2,8.8-4.3,17.7-6,26.6c-0.7,3.5-1,7.6,0,10.9
	c0.9,2.9,3.9,5.2,6.2,7.5c6.2,6,12.6,11.7,18.7,17.8c12.9,13,25.6,26.3,38.4,39.3c14.1,14.3,28.4,28.4,42.3,42.8
	c8.7,9,17,18.5,25.3,27.9c6.6,7.5,12.4,15.8,19.4,22.9c4.5,4.6,7.3,12.5,17,9.6c8.1-2.4,16.8-2.5,25.1-4.3c6.1-1.4,11.9-4,17.9-6
	c-1.5-2-2.8-4.1-4.5-5.9c-5.6-5.7-11.4-11.1-16.9-16.7c-8.5-8.6-16-18.7-25.7-25.5c-6.3-4.4-9.2-10.9-15-15.3
	c-5.9-4.5-10.8-10.3-16.2-15.4c-5.6-5.3-11.6-10.2-17.2-15.6c-6.3-6.2-12-13-18.4-19.2c-10.6-10.3-21.5-20.2-32.2-30.4
	C83,174.8,73.7,166,64.7,157C55.2,147.5,46,137.8,36.4,127.8z M338.6,191.2c-0.6-0.6-1.9-1.5-2.8-2.7c-1.1-1.3-1.6-3.1-2.8-4.2
	c-4.7-4.8-9.6-9.5-14.5-14.2c-7.2-7-14.3-14.2-21.7-21.1c-4.4-4.1-9.3-7.8-13.9-11.7c-1.3-1.1-2.4-2.3-3.5-3.5
	c-4.1-4.6-7.9-9.4-12.2-13.8c-6.1-6.2-12.5-12.1-18.8-18c-4.6-4.4-9.4-8.8-14-13.3c-5-4.9-9.8-9.9-14.7-14.8
	c-6.6-6.7-13.3-13.4-20-20.1c-2.2-2.2-4.4-4.2-6.7-6.3c-7-6.3-13.9-12.6-21-18.8c-1.1-1-2.9-2-4.2-1.9c-4.5,0.4-9.1,1-13.6,1.9
	c-8.6,1.9-17.1,4.1-26.3,6.3c7.5,7.8,14,14.8,20.7,21.6c7.5,7.6,15.4,14.9,22.9,22.5c16.5,16.4,32.9,32.8,49.3,49.3
	c20.9,21.2,42,42.2,62.6,63.7c8.4,8.8,15.6,18.8,23.5,28.1c6.1,7.1,12.6,13.8,19.2,20.9C334.1,224.7,337.6,208.2,338.6,191.2z
	 M194.8,24c-0.1,0.5-0.2,1-0.4,1.4c1.8,1.3,4,2.2,5.2,3.9c7.8,11.7,19.1,19.9,28.9,29.6c4.4,4.4,9.8,7.7,14.3,12
	c6.7,6.4,13,13.3,19.6,19.8c2,2,4.4,3.5,6.3,5.5c10.7,11.1,21.4,22.3,32.1,33.4c7.6,7.9,15.2,15.7,22.9,23.4c3.3,3.3,7.1,6.1,11,9.5
	c0-2.3,0.4-4.1-0.1-5.6c-3.6-13.1-6.2-26.7-11.2-39.2c-5.7-14.1-13.4-27.3-20.7-40.7c-1.9-3.5-5.2-7.9-8.5-8.5
	c-4.1-0.7-5.9-3.2-8.5-5.3c-7.9-6.2-15.5-12.8-23.9-18.2c-2.3-1.5-4.8-3.6-7-4.4c-5-1.8-9.2-3.7-11-9.1c-2,1.2-3.5,2.1-5,3
	C225,27.3,209.6,26.9,194.8,24z M28.8,199c-0.4,0.2-0.8,0.3-1.3,0.5c0.8,4.7,1.2,9.4,2.4,13.9c2.2,9,4.3,18.1,7.4,26.8
	c3,8.3,7.1,16.3,11,24.3c4.6,9.4,8.9,19.1,17.1,26.1c2.2,1.9,5.2,2.8,7.6,4.5c3.6,2.7,6.8,5.9,10.4,8.6c4.8,3.7,9.7,7.2,14.7,10.5
	c3.9,2.6,8,5,12.1,7.3c1,0.6,2.4,0.5,3.6,0.5c2.1-0.1,4.2-0.4,5.1-0.5c2.7,2.6,4.4,4.7,6.6,6.1c2.2,1.5,4.8,2.5,7.3,3.3
	c6.1,1.7,12.2,4.3,18.3,4.3c4.6,0,8.6,0.9,12.8,2c1.4,0.3,2.9,0.3,4.7,0.5c-0.8-1.4-1.2-2.6-1.9-3.3c-5.7-5.6-11.5-11.1-17.2-16.7
	c-5.5-5.4-10.7-11-16.3-16.1c-5.3-4.8-11.3-9-16.6-13.9c-2.3-2-3.5-5.2-5.6-7.4c-7.7-7.6-15.7-15-23.4-22.6
	c-10.9-10.8-21.7-21.6-32.5-32.5C46.2,216.6,37.5,207.8,28.8,199z M166.3,178.5c2.1,2.3,3.6,3.2,3.8,4.4c1.2,5.6,7.3,10.2,12.1,8.8
	c5-1.4,9.1-8.3,7.4-13.1c-1.4-3.9-4.3-7.6-8.6-6.5C175.9,173.2,171.2,176.2,166.3,178.5z"/>
</svg>
