<?xml version="1.0" encoding="utf-8"?>
<!-- Generator: Adobe Illustrator 24.0.3, SVG Export Plug-In . SVG Version: 6.00 Build 0)  -->
<svg version="1.1" id="Layer_1" xmlns:sodipodi="http://sodipodi.sourceforge.net/DTD/sodipodi-0.dtd"
	 xmlns="http://www.w3.org/2000/svg" xmlns:xlink="http://www.w3.org/1999/xlink" x="0px" y="0px" viewBox="0 0 191.4 87.8"
	 enable-background="new 0 0 191.4 87.8" xml:space="preserve">
<g id="id1" transform="matrix(1.0,0,0,1.0,266.0,0.0)">
	<g>
		<path fill="#1A2362" d="M-167.3,19.7c-0.1,8.6,7.6,13.4,13.5,16.2c6,2.9,8,4.8,8,7.4c-0.1,4-4.8,5.8-9.2,5.8
			c-7.8,0.1-12.3-2.1-15.8-3.8l-2.8,13.1c3.6,1.7,10.3,3.1,17.2,3.2c16.2,0,26.8-8,26.9-20.4c0.1-15.7-21.8-16.6-21.6-23.6
			c0.1-2.1,2.1-4.4,6.6-5c2.2-0.3,8.3-0.5,15.2,2.7l2.7-12.6C-130.3,1.4-135.1,0-141,0C-156.5,0-167.2,8.1-167.3,19.7 M-100.7,1.1
			c-3,0-5.4,1.7-6.6,4.4l-23.1,55.2h16.2l3.2-8.9h19.8l1.9,8.9h14.2L-87.5,1.1H-100.7 M-98.5,17.2l4.7,22.4h-12.8L-98.5,17.2
			 M-186.9,1.1l-12.8,59.6h15.4l12.8-59.6H-186.9 M-209.7,1.1l-16.1,40.6l-6.5-34.5c-0.8-3.8-3.8-6.1-7.1-6.1h-26.2l-0.4,1.7
			c5.4,1.2,11.5,3.1,15.2,5.1c2.3,1.2,2.9,2.3,3.7,5.2l12.3,47.6h16.3l25-59.6H-209.7"/>
	</g>
	<g>
		<polygon fill="#1A1F71" points="-158.9,79 -165.9,79 -165.9,85.5 -158,85.5 -158,87.5 -168.3,87.5 -168.3,69.3 -158.5,69.3 
			-158.5,71.3 -165.9,71.3 -165.9,77 -158.9,77 		"/>
		<rect x="-154.4" y="68.3" fill="#1A1F71" width="2.4" height="19.2"/>
		<path fill="#1A1F71" d="M-136.8,80.3c0-2.4-1.1-6.1-5.4-6.1c-3.8,0-6.1,3.1-6.1,7c0,3.9,2.4,6.6,6.4,6.6c2.1,0,3.5-0.5,4.4-0.8
			l-0.4-1.7c-0.9,0.4-1.9,0.7-3.6,0.7c-2.4,0-4.4-1.3-4.5-4.5h9.2C-136.8,81.1-136.8,80.8-136.8,80.3z M-146,79.7
			c0.2-1.7,1.2-3.8,3.6-3.8c2.7,0,3.3,2.3,3.3,3.8H-146z"/>
		<path fill="#1A1F71" d="M-123.8,87c-0.6,0.3-2,0.8-3.8,0.8c-3.9,0-6.5-2.7-6.5-6.7s2.8-7,7-7c1.4,0,2.6,0.3,3.3,0.7l-0.5,1.8
			c-0.6-0.3-1.5-0.6-2.8-0.6c-3,0-4.6,2.2-4.6,4.9c0,3,1.9,4.9,4.5,4.9c1.4,0,2.2-0.3,2.9-0.6L-123.8,87z"/>
		<path fill="#1A1F71" d="M-117.2,71.3v3.1h3.4v1.8h-3.4v7.1c0,1.6,0.5,2.5,1.8,2.5c0.6,0,1-0.1,1.4-0.2l0.1,1.8
			c-0.5,0.2-1.2,0.3-2.1,0.3c-1.1,0-2-0.4-2.6-1c-0.6-0.7-0.9-1.9-0.9-3.4v-7.1h-2v-1.8h2V72L-117.2,71.3z"/>
		<path fill="#1A1F71" d="M-110.4,78.5c0-1.5,0-2.9-0.1-4.1h2.1l0.1,2.6h0.1c0.6-1.8,2.1-2.9,3.6-2.9c0.2,0,0.4,0,0.6,0.1v2.2
			c-0.2-0.1-0.5-0.1-0.8-0.1c-1.7,0-2.9,1.2-3.2,3c-0.1,0.3-0.1,0.7-0.1,1.1v7h-2.4L-110.4,78.5L-110.4,78.5z"/>
		<path fill="#1A1F71" d="M-95.7,74.2c-3.6,0-6.5,2.6-6.5,6.9c0,4.1,2.8,6.7,6.3,6.7c3.1,0,6.5-2.1,6.5-6.9
			C-89.4,76.9-91.9,74.2-95.7,74.2z M-95.8,86c-2.3,0-3.9-2.2-3.9-5c0-2.5,1.2-5.1,4-5.1s3.9,2.8,3.9,5C-91.8,83.9-93.5,86-95.8,86z
			"/>
		<path fill="#1A1F71" d="M-85.7,78c0-1.4,0-2.5-0.1-3.5h2.1l0.1,2.2h0.1c0.6-1.2,2.2-2.4,4.3-2.4c1.8,0,4.6,1.1,4.6,5.6v7.8H-77
			v-7.5c0-2.1-0.8-3.9-3-3.9c-1.5,0-2.8,1.1-3.2,2.4c-0.1,0.3-0.2,0.7-0.2,1.1v7.9h-2.4L-85.7,78L-85.7,78z"/>
	</g>
</g>
</svg>
