<?xml version="1.0" encoding="utf-8"?>
<!-- Generator: Adobe Illustrator 24.0.3, SVG Export Plug-In . SVG Version: 6.00 Build 0)  -->
<svg version="1.1" id="Layer_1" xmlns:sodipodi="http://sodipodi.sourceforge.net/DTD/sodipodi-0.dtd"
	 xmlns="http://www.w3.org/2000/svg" xmlns:xlink="http://www.w3.org/1999/xlink" x="0px" y="0px" viewBox="0 0 190.9 61.6"
	 enable-background="new 0 0 190.9 61.6" xml:space="preserve">
<g id="id0" transform="matrix(1.0,0,0,1.0,0.0,0.0)">
	<g>
		<path fill="#1A2362" d="M98.7,19.7c-0.1,8.6,7.6,13.4,13.5,16.2c6,2.9,8,4.8,8,7.4c-0.1,4-4.8,5.8-9.2,5.8
			c-7.8,0.1-12.3-2.1-15.8-3.8l-2.8,13.1c3.6,1.7,10.3,3.1,17.2,3.2c16.2,0,26.8-8,26.9-20.4c0.1-15.7-21.8-16.6-21.6-23.6
			c0.1-2.1,2.1-4.4,6.6-5c2.2-0.3,8.3-0.5,15.2,2.7l2.7-12.6C135.7,1.4,130.9,0,125,0C109.5,0,98.8,8.1,98.7,19.7 M165.3,1.1
			c-3,0-5.4,1.7-6.6,4.4l-23.1,55.2h16.2l3.2-8.9h19.8l1.9,8.9h14.2L178.5,1.1H165.3 M167.5,17.2l4.7,22.4h-12.8L167.5,17.2
			 M79.1,1.1L66.3,60.7h15.4L94.5,1.1H79.1 M56.3,1.1L40.2,41.7L33.7,7.2c-0.8-3.8-3.8-6.1-7.1-6.1H0.4L0,2.8
			C5.4,4,11.5,5.9,15.2,7.9c2.3,1.2,2.9,2.3,3.7,5.2l12.3,47.6h16.3l25-59.6H56.3"/>
	</g>
</g>
</svg>
