<?xml version="1.0" encoding="utf-8"?>
<!-- Generator: Adobe Illustrator 24.0.3, SVG Export Plug-In . SVG Version: 6.00 Build 0)  -->
<svg version="1.1" id="Layer_1" xmlns:sodipodi="http://sodipodi.sourceforge.net/DTD/sodipodi-0.dtd"
	 xmlns="http://www.w3.org/2000/svg" xmlns:xlink="http://www.w3.org/1999/xlink" x="0px" y="0px" viewBox="0 0 197.6 130.6"
	 enable-background="new 0 0 197.6 130.6" xml:space="preserve">
<g id="id3" transform="matrix(1.0,0,0,1.0,798.0,0.0)">
	<g id="tpyqJ8.tif_1_">
	</g>
	<g id="RHc8AJ.tif_1_">
	</g>
	<g id="MRG7VI.tif_1_">
	</g>
	<g id="ddSF7z.tif_1_">
	</g>
	<g>
		<g>
			<g>
				<defs>
					<rect id="SVGID_1_" x="-798" width="197.6" height="130.6"/>
				</defs>
				<clipPath id="SVGID_2_">
					<use xlink:href="#SVGID_1_"  overflow="visible"/>
				</clipPath>
				<g clip-path="url(#SVGID_2_)">
					<g>
						<defs>
							<rect id="SVGID_3_" x="-798" width="197.6" height="130.6"/>
						</defs>
						<clipPath id="SVGID_4_">
							<use xlink:href="#SVGID_3_"  overflow="visible"/>
						</clipPath>
						<path clip-path="url(#SVGID_4_)" fill="#FFFFFF" d="M-738.5,7c-32.2,0-58.3,26.2-58.3,58.3c0,32.2,26.2,58.3,58.3,58.3h78.6
							c32.2,0,58.3-26.2,58.3-58.3c0-32.2-26.2-58.3-58.3-58.3H-738.5z"/>
					</g>
					<g>
						<defs>
							<rect id="SVGID_5_" x="-798" width="197.6" height="130.6"/>
						</defs>
						<clipPath id="SVGID_6_">
							<use xlink:href="#SVGID_5_"  overflow="visible"/>
						</clipPath>
						<path clip-path="url(#SVGID_6_)" fill="#FFFFFF" d="M-659.9,124.8h-78.6c-32.8,0-59.5-26.7-59.5-59.5s26.7-59.5,59.5-59.5
							h78.6c32.8,0,59.5,26.7,59.5,59.5S-627.1,124.8-659.9,124.8 M-738.5,7c-32.2,0-58.3,26.2-58.3,58.3
							c0,32.2,26.2,58.3,58.3,58.3h78.6c32.2,0,58.3-26.2,58.3-58.3c0-32.2-26.2-58.3-58.3-58.3H-738.5z"/>
					</g>
					<g>
						<defs>
							<rect id="SVGID_7_" x="-798" width="197.6" height="130.6"/>
						</defs>
						<clipPath id="SVGID_8_">
							<use xlink:href="#SVGID_7_"  overflow="visible"/>
						</clipPath>
						<path clip-path="url(#SVGID_8_)" fill="#F20005" d="M-646.2,61.7l26.1,31.1c5.4-7.8,8.6-17.3,8.6-27.5
							c0-10.8-3.5-20.7-9.5-28.8L-646.2,61.7z"/>
					</g>
					<g>
						<defs>
							<rect id="SVGID_9_" x="-798" width="197.6" height="130.6"/>
						</defs>
						<clipPath id="SVGID_10_">
							<use xlink:href="#SVGID_9_"  overflow="visible"/>
						</clipPath>
						<path clip-path="url(#SVGID_10_)" fill="#F20005" d="M-720.2,33.9c19.5,0,34.2,5,35.7,21.4l20.5-21.4h40.9
							c-8.9-10.4-22.1-17-36.8-17h-78.6c-14.7,0-28,6.6-36.8,17H-720.2z"/>
					</g>
					<g>
						<defs>
							<rect id="SVGID_11_" x="-798" width="197.6" height="130.6"/>
						</defs>
						<clipPath id="SVGID_12_">
							<use xlink:href="#SVGID_11_"  overflow="visible"/>
						</clipPath>
						<path clip-path="url(#SVGID_12_)" fill="#F20005" d="M-752.3,54.6l-7,19.2h28.1c8.3,0,10.8-3.4,12.7-10.1
							c1.8-6.5-2.8-9.1-8.5-9.1H-752.3z"/>
					</g>
					<g>
						<defs>
							<rect id="SVGID_13_" x="-798" width="197.6" height="130.6"/>
						</defs>
						<clipPath id="SVGID_14_">
							<use xlink:href="#SVGID_13_"  overflow="visible"/>
						</clipPath>
						<path clip-path="url(#SVGID_14_)" fill="#F20005" d="M-663.8,95.4L-685.5,68c-4,18.7-17.2,27.4-41.8,27.4h-49.1
							c8.9,11.2,22.6,18.3,37.9,18.3h78.6c15.3,0,29-7.2,37.9-18.3C-622,95.4-663.8,95.4-663.8,95.4z"/>
					</g>
				</g>
			</g>
		</g>
	</g>
</g>
</svg>
