<?xml version="1.0" encoding="utf-8"?>
<!-- Generator: Adobe Illustrator 24.0.3, SVG Export Plug-In . SVG Version: 6.00 Build 0)  -->
<svg version="1.1" id="Layer_1" xmlns:sodipodi="http://sodipodi.sourceforge.net/DTD/sodipodi-0.dtd"
	 xmlns="http://www.w3.org/2000/svg" xmlns:xlink="http://www.w3.org/1999/xlink" x="0px" y="0px" viewBox="0 0 107.2 115.1"
	 enable-background="new 0 0 107.2 115.1" xml:space="preserve">
<g id="id4" transform="matrix(1.0,0,0,1.0,1064.0,0.0)">
	<g>
		<g>
			<path fill="#5A78FF" d="M-1020.8,115.1c-3.8,0-7.4-2.3-9-6l-33.5-81c-1-2.4-1-5,0-7.4s2.9-4.3,5.3-5.3l35.1-14.6
				c4.9-2.1,10.6,0.3,12.7,5.3l33.5,81c1,2.4,1,5,0,7.4s-2.9,4.3-5.3,5.3l-35.1,14.6C-1018.3,114.9-1019.5,115.1-1020.8,115.1z
				 M-1019.2,5.4c-0.6,0-1.2,0.1-1.7,0.3l-35.1,14.6c-1.1,0.5-2,1.3-2.4,2.4c-0.5,1.1-0.5,2.3,0,3.4l33.5,81
				c0.9,2.3,3.6,3.4,5.9,2.4l35.1-14.6l0,0c1.1-0.5,2-1.3,2.4-2.4c0.5-1.1,0.5-2.3,0-3.4l-33.5-81c-0.5-1.1-1.3-2-2.4-2.4
				C-1018,5.5-1018.7,5.4-1019.2,5.4z"/>
		</g>
		<path fill="#5A78FF" d="M-989.8,59.7c-10,4.2-18.4,9.9-23.9,16.8l-14.2-34.2c6-7.2,13.9-12.7,23.9-16.8c10-4.2,20.2-6.2,28.8-5
			l14.2,34.2C-970,53.7-979.8,55.5-989.8,59.7z"/>
		<g opacity="0.4">
			<path fill="none" d="M-989.8,59.7c-10,4.2-18.4,9.9-23.9,16.8l-14.2-34.2c6-7.2,13.9-12.7,23.9-16.8c10-4.2,20.2-6.2,28.8-5
				l14.2,34.2C-970,53.7-979.8,55.5-989.8,59.7z"/>
		</g>
		<path fill="#5A78FF" d="M-985.2,70.1c-10.9,0-20.8,2.1-28.5,6.4V41.9c8.3-4.4,17.7-6.4,28.5-6.4c10.9,0,21,2,28.5,6.4v34.6
			C-964.7,72.2-974.3,70.1-985.2,70.1z"/>
	</g>
</g>
</svg>
