<?xml version="1.0" encoding="utf-8"?>
<!-- Generator: Adobe Illustrator 24.0.3, SVG Export Plug-In . SVG Version: 6.00 Build 0)  -->
<svg version="1.1" id="Layer_1" xmlns:sodipodi="http://sodipodi.sourceforge.net/DTD/sodipodi-0.dtd"
	 xmlns="http://www.w3.org/2000/svg" xmlns:xlink="http://www.w3.org/1999/xlink" x="0px" y="0px" viewBox="0 0 145.2 112.8"
	 enable-background="new 0 0 145.2 112.8" xml:space="preserve">
<g id="id2" transform="matrix(1.0,0,0,1.0,532.0,0.0)">
	<g id="tpyqJ8.tif">
	</g>
	<g id="RHc8AJ.tif">
	</g>
	<g id="MRG7VI.tif">
	</g>
	<g id="ddSF7z.tif">
	</g>
	<g>
		<path d="M-505.6,112.5V105c0-2.9-1.7-4.7-4.7-4.7c-1.5,0-3.1,0.5-4.2,2.1c-0.9-1.4-2.1-2.1-4-2.1c-1.2,0-2.5,0.4-3.5,1.7v-1.5
			h-2.6v12h2.6v-6.6c0-2.1,1.1-3.1,2.9-3.1c1.8,0,2.6,1.1,2.6,3.1v6.6h2.6v-6.6c0-2.1,1.2-3.1,2.9-3.1s2.6,1.1,2.6,3.1v6.6H-505.6
			L-505.6,112.5z M-466.8,100.5h-4.3v-3.6h-2.6v3.6h-2.4v2.4h2.4v5.5c0,2.7,1.1,4.4,4.1,4.4c1.1,0,2.4-0.4,3.2-0.9l-0.8-2.2
			c-0.8,0.5-1.6,0.6-2.2,0.6c-1.2,0-1.7-0.8-1.7-2v-5.4h4.2v-2.4H-466.8z M-444.6,100.3c-1.5,0-2.5,0.8-3.1,1.7v-1.5h-2.6v12h2.6
			v-6.7c0-2,0.9-3.1,2.5-3.1c0.5,0,1.1,0.1,1.6,0.2l0.8-2.5C-443.4,100.3-444.1,100.3-444.6,100.3L-444.6,100.3L-444.6,100.3z
			 M-478.2,101.5c-1.2-0.9-3-1.2-4.9-1.2c-3,0-5,1.5-5,3.9c0,2,1.5,3.1,4.1,3.5l1.2,0.1c1.4,0.2,2.1,0.6,2.1,1.2
			c0,0.9-1,1.5-2.7,1.5c-1.7,0-3.1-0.6-4-1.2l-1.2,2c1.4,1,3.2,1.5,5.1,1.5c3.5,0,5.5-1.6,5.5-3.9c0-2.1-1.6-3.2-4.1-3.6l-1.2-0.1
			c-1.1-0.1-2-0.4-2-1.1c0-0.9,0.9-1.4,2.2-1.4c1.5,0,3,0.6,3.7,1L-478.2,101.5L-478.2,101.5z M-408.6,100.3c-1.5,0-2.5,0.8-3.1,1.7
			v-1.5h-2.6v12h2.6v-6.7c0-2,0.9-3.1,2.5-3.1c0.5,0,1.1,0.1,1.6,0.2l0.8-2.5C-407.4,100.3-408.1,100.3-408.6,100.3L-408.6,100.3
			L-408.6,100.3z M-442,106.5c0,3.6,2.5,6.2,6.4,6.2c1.7,0,3-0.4,4.2-1.4l-1.2-2.1c-1,0.8-2,1.1-3.1,1.1c-2.1,0-3.6-1.5-3.6-3.9
			c0-2.2,1.5-3.7,3.6-3.9c1.1,0,2.1,0.4,3.1,1.1l1.2-2.1c-1.2-1-2.5-1.4-4.2-1.4C-439.5,100.3-442,102.9-442,106.5L-442,106.5
			L-442,106.5z M-417.8,106.5v-6h-2.6v1.5c-0.9-1.1-2.1-1.7-3.7-1.7c-3.4,0-6,2.6-6,6.2s2.6,6.2,6,6.2c1.7,0,3-0.6,3.7-1.7v1.5h2.6
			V106.5z M-427.4,106.5c0-2.1,1.4-3.9,3.6-3.9c2.1,0,3.6,1.6,3.6,3.9c0,2.1-1.5,3.9-3.6,3.9C-426.1,110.2-427.4,108.6-427.4,106.5
			L-427.4,106.5z M-458.7,100.3c-3.5,0-6,2.5-6,6.2s2.5,6.2,6.1,6.2c1.7,0,3.5-0.5,4.9-1.6l-1.2-1.9c-1,0.8-2.2,1.2-3.5,1.2
			c-1.6,0-3.2-0.8-3.6-2.9h8.9v-1C-453.1,102.8-455.4,100.3-458.7,100.3L-458.7,100.3L-458.7,100.3z M-458.7,102.5
			c1.6,0,2.7,1,3,2.9h-6.2C-461.7,103.8-460.6,102.5-458.7,102.5L-458.7,102.5z M-393.8,106.5V95.8h-2.6v6.2
			c-0.9-1.1-2.1-1.7-3.7-1.7c-3.4,0-6,2.6-6,6.2s2.6,6.2,6,6.2c1.7,0,3-0.6,3.7-1.7v1.5h2.6V106.5z M-403.4,106.5
			c0-2.1,1.4-3.9,3.6-3.9c2.1,0,3.6,1.6,3.6,3.9c0,2.1-1.5,3.9-3.6,3.9C-402,110.2-403.4,108.6-403.4,106.5L-403.4,106.5z
			 M-490.9,106.5v-6h-2.6v1.5c-0.9-1.1-2.1-1.7-3.7-1.7c-3.4,0-6,2.6-6,6.2s2.6,6.2,6,6.2c1.7,0,3-0.6,3.7-1.7v1.5h2.6V106.5z
			 M-500.6,106.5c0-2.1,1.4-3.9,3.6-3.9c2.1,0,3.6,1.6,3.6,3.9c0,2.1-1.5,3.9-3.6,3.9C-499.2,110.2-500.6,108.6-500.6,106.5z"/>
		<rect x="-479" y="9.7" fill="#FF5F00" width="39.3" height="70.6"/>
		<path fill="#EB001B" d="M-476.5,44.9c0-14.3,6.7-27,17.1-35.3c-7.6-6-17.2-9.6-27.7-9.6C-511.9,0-532,20.1-532,44.9
			s20.1,44.9,44.9,44.9c10.5,0,20.1-3.6,27.7-9.6C-469.8,72.1-476.5,59.3-476.5,44.9z"/>
		<path fill="#F79E1B" d="M-386.8,44.9c0,24.8-20.1,44.9-44.9,44.9c-10.5,0-20.1-3.6-27.7-9.6c10.5-8.2,17.1-20.9,17.1-35.3
			s-6.7-27-17.1-35.3c7.6-6,17.2-9.6,27.7-9.6C-406.9,0.1-386.8,20.3-386.8,44.9z"/>
	</g>
</g>
</svg>
